<svg data-photo-mask-ready="true" width="595" height="842" viewBox="0 0 595 842" fill="none" xmlns="http://www.w3.org/2000/svg" xmlns:xlink="http://www.w3.org/1999/xlink">
<g id="A4 - 11" clip-path="url(#clip0_283_67)">
<g id="capa_11">
<path id="Subtract" fill-rule="evenodd" clip-rule="evenodd" d="M0 0L0 74.1762L595 74.1762V0L0 0Z" fill="white"/>
<path id="Subtract_2" d="M0 83.6895L595 83.6895V74.168L0 74.168L0 83.6895Z" fill="#D4D5D7"/>
<path id="Subtract_3" d="M0 585.391H199.373L220.145 621.407L305.982 621.556L326.755 585.391L595 585.391V842H0L0 585.391Z" fill="white"/>
<path id="cor_neutra" d="M300.225 335.521L310.619 317.423C293.794 316.525 273.731 315.663 252 314.996L195.5 336.114C225.863 335.416 260.592 335.172 300.225 335.521Z" fill="black"/>
<g id="cor_destaque">
<path d="M137 314.019L86.0957 341.879C113.875 339.249 149.727 337.167 195.5 336.114L252 314.996C215.868 313.887 175.126 313.317 137 314.019Z" fill="#DD400B"/>
</g>
<g id="cor_primaria">
<path d="M0 332.871L0 363.241C0.526936 363.031 1.06315 362.821 1.60874 362.611L0 332.871Z" fill="#1AA6BE"/>
<path d="M464.5 482.31L451.5 505.219L595 505.289V407.261L553.146 479.927L464.5 482.31Z" fill="#1AA6BE"/>
</g>
<path id="Vector 25 (Stroke)" fill-rule="evenodd" clip-rule="evenodd" d="M595 506.29V621.472H326.76L305.987 657.638L220.154 657.486L199.377 621.472H0V506.29H595ZM595 517.348H0V610.414H205.766L226.535 646.491L299.61 646.62L320.382 610.414H595V517.348Z" fill="#1AA6BE"/>
<path id="cor_primaria_2" d="M0 484.956C111.631 451.95 211.936 457.418 263.287 468.26C272.927 470.296 281.467 475.346 287.507 483.131L305.473 506.29L0 506.29L0 484.956Z" fill="#1AA6BE"/>
<path id="cor_secundaria" d="M513.5 406.809C531.734 406.809 553.16 407.027 595 407.261L552.21 481.773L464.5 481.773L513.5 406.809Z" fill="#1AA6BE"/>
<path id="cor_secundaria_2" d="M83.5276 341.671C82.6214 341.672 81.7718 341.864 80.9824 342.21C54.4298 345.508 27.3212 350.588 1.60874 362.611L0 332.871C15.8093 326.588 60.1823 316.531 137 314.019L83.5276 341.671Z" fill="#1AA6BE"/>
<path id="Subtract_4" fill-rule="evenodd" clip-rule="evenodd" d="M428.854 260.74H343.02L310.619 317.423C293.794 316.525 273.731 315.663 252 314.996L195.5 336.114C225.863 335.416 260.592 335.172 300.225 335.521L257.801 409.403L292.5 469.685C304.188 472.961 309.593 481.986 321.816 506.287H331.758L358.914 459.151L444.75 459.3L487.793 384.773L428.854 260.74Z" fill="black"/>
<path id="cor_destaque_2" d="M429.5 260.77L488.5 384.81L445 459.549L358.578 459.549L331.758 506.287L595 506.287V83.6875H0V332.871C15.8093 326.588 60.1823 316.531 137 314.019C175.126 313.317 215.868 313.887 252 314.996L343.667 260.77L429.5 260.77Z" fill="#DD400B"/>
<path id="cor_primaria_3" d="M595 505.075H456.332L469.858 481.519L551.86 481.662L551.896 481.599L552.21 481.6L595 407.088L551.967 332.452L470.117 332.309L428.852 260.74L343.016 260.59L310.5 317.72C293.563 317.443 273.652 315.879 252 315.214C215.5 315.214 175.126 313.51 137 314.212C71.5 316.326 14.5 320.225 0 332.754L0 83.1885H595V505.075Z" fill="#1AA6BE"/>
<path id="cor_neutra_2" d="M343.667 260.773L310.619 317.424L301 335.523L257.5 409.212L292.5 469.687L305.982 506.284H331.759L358.922 459.146H444.755L487.793 384.619L428.854 260.59L343.667 260.773Z" fill="#524848"/>
<path id="cor_secundaria_3" d="M343.667 260.774L310.62 317.425C293.794 316.526 273.731 315.665 252 314.997L343.667 260.774Z" fill="#1AA6BE"/>
<path id="cor_secundaria_4" d="M137 314.02L83.5276 341.672C82.6214 341.673 81.7718 341.864 80.9824 342.211C54.4298 345.509 27.3212 350.589 1.60874 362.612L0 332.872C15.8093 326.589 60.1823 316.533 137 314.02Z" fill="#1AA6BE"/>
<path id="cor_secundaria_5" d="M86.0957 341.879L137 314.02C175.126 313.317 215.868 313.887 252 314.997L195.5 336.114C149.727 337.167 113.875 339.249 86.0957 341.879Z" fill="#1AA6BE"/>
<g id="proposta">
<path d="M38.4487 154.065H77.437C86.9214 154.065 93.5396 156.152 97.2913 160.324C101.043 164.496 102.919 170.356 102.919 177.902C102.919 185.579 101.043 191.504 97.2913 195.678C93.5396 199.851 86.9214 201.937 77.437 201.937H58.7464V226.29H38.4487V154.065ZM74.6738 185.453C77.5689 185.453 79.5615 184.732 80.6517 183.291C81.742 181.849 82.2871 179.92 82.2871 177.502C82.2871 175.084 81.742 173.154 80.6517 171.713C79.5615 170.272 77.5689 169.551 74.6738 169.551H58.7464V185.453H74.6738ZM109.432 154.065H157.793C169.016 154.065 176.94 155.714 181.563 159.013C186.259 162.312 188.608 167.621 188.608 174.941C188.608 180.447 187.245 184.933 184.52 188.401C181.794 191.867 177.423 194.306 171.406 195.715C176.841 196.837 180.872 198.913 183.497 201.939C186.122 204.965 187.838 209.715 188.645 216.188C188.998 218.728 189.311 220.742 189.584 222.23C189.857 223.718 190.379 224.838 191.152 225.59C191.95 226.317 193.172 226.69 194.818 226.708V226.79H173.73C171.836 224.908 170.424 219.993 169.494 212.043C169.05 208.129 168.111 205.487 166.679 204.117C165.246 202.72 162.384 202.022 158.091 202.022H129.725V226.29H109.432V154.065ZM157.102 185.785C161.741 185.785 164.695 185.086 165.962 183.688C167.232 182.289 167.867 180.373 167.867 177.94C167.867 175.705 167.232 173.91 165.962 172.555C164.695 171.169 161.741 170.476 157.102 170.476H129.725V185.785H157.102ZM237.512 228.096C227.637 228.096 219.16 226.563 212.079 223.494C204.999 220.426 199.604 216.083 195.895 210.464C192.186 204.844 190.332 198.179 190.332 190.469C190.332 182.759 192.186 176.095 195.895 170.475C199.604 164.855 204.999 160.512 212.079 157.443C219.16 154.375 227.637 152.84 237.512 152.84C247.387 152.84 255.864 154.375 262.944 157.443C270.025 160.512 275.419 164.855 279.128 170.475C282.837 176.095 284.692 182.759 284.692 190.469C284.692 198.179 282.837 204.844 279.128 210.464C275.419 216.083 270.025 220.426 262.944 223.494C255.864 226.563 247.387 228.096 237.512 228.096ZM237.512 212.22C245.812 212.22 252.278 210.39 256.912 206.73C261.545 203.071 263.861 197.651 263.861 190.469C263.861 183.287 261.545 177.867 256.912 174.207C252.278 170.547 245.812 168.717 237.512 168.717C229.211 168.717 222.745 170.547 218.112 174.207C213.479 177.867 211.162 183.287 211.162 190.469C211.162 197.651 213.479 203.071 218.112 206.73C222.745 210.39 229.211 212.22 237.512 212.22ZM291.211 154.065H330.2C339.684 154.065 346.302 156.152 350.054 160.324C353.806 164.496 355.682 170.356 355.682 177.902C355.682 185.579 353.806 191.504 350.054 195.678C346.302 199.851 339.684 201.937 330.2 201.937H311.509V226.29H291.211V154.065ZM327.436 185.453C330.331 185.453 332.324 184.732 333.414 183.291C334.504 181.849 335.049 179.92 335.049 177.502C335.049 175.084 334.504 173.154 333.414 171.713C332.324 170.272 330.331 169.551 327.436 169.551H311.509V185.453H327.436ZM409.575 228.096C399.7 228.096 391.223 226.563 384.142 223.494C377.062 220.426 371.667 216.083 367.958 210.464C364.249 204.844 362.394 198.179 362.394 190.469C362.394 182.759 364.249 176.095 367.958 170.475C371.667 164.855 377.062 160.512 384.142 157.443C391.223 154.375 399.7 152.84 409.575 152.84C419.45 152.84 427.927 154.375 435.007 157.443C442.088 160.512 447.483 164.855 451.192 170.475C454.901 176.095 456.756 182.759 456.756 190.469C456.756 198.179 454.901 204.844 451.192 210.464C447.483 216.083 442.088 220.426 435.007 223.494C427.927 226.563 419.45 228.096 409.575 228.096ZM409.575 212.22C417.875 212.22 424.341 210.39 428.975 206.73C433.608 203.071 435.924 197.651 435.924 190.469C435.924 183.287 433.608 177.867 428.975 174.207C424.341 170.547 417.875 168.717 409.575 168.717C401.274 168.717 394.808 170.547 390.175 174.207C385.542 177.867 383.225 183.287 383.225 190.469C383.225 197.651 385.542 203.071 390.175 206.73C394.808 210.39 401.274 212.22 409.575 212.22ZM505.346 228.096C492.417 228.096 482.782 226.037 476.439 221.919C470.096 217.801 466.579 211.779 465.889 203.853H485.995C486.816 207.406 488.759 209.842 491.823 211.16C494.887 212.479 499.456 213.138 505.531 213.138C510.983 213.138 515.056 212.711 517.75 211.859C520.476 211.006 521.839 209.514 521.839 207.381C521.839 206.044 521.453 205.026 520.681 204.326C519.91 203.627 518.32 203.015 515.912 202.491C513.503 201.967 509.698 201.446 504.497 200.93C495.389 199.992 488.23 198.657 483.02 196.925C477.81 195.193 474.187 192.698 472.152 189.44C470.116 186.181 469.098 181.826 469.098 176.375C469.098 171.085 470.719 166.689 473.961 163.19C477.204 159.689 481.623 157.11 487.218 155.45C492.814 153.79 499.304 152.961 506.689 152.961C518.644 152.961 527.374 154.9 532.879 158.779C538.384 162.658 541.4 168.1 541.927 175.104H522.474C522.23 172.309 521.045 170.341 518.921 169.201C516.797 168.029 512.701 167.443 506.634 167.443C494.411 167.443 488.299 170.098 488.299 175.407C488.299 177.018 488.784 178.285 489.754 179.205C490.723 180.126 492.661 180.918 495.569 181.584C498.477 182.249 502.856 182.871 508.706 183.451C517.205 184.29 523.69 185.399 528.16 186.779C532.63 188.159 535.89 190.334 537.942 193.304C539.993 196.274 541.019 200.535 541.019 206.088C541.019 213.78 537.878 219.395 531.595 222.935C525.312 226.375 516.562 228.096 505.346 228.096Z" fill="white"/>
</g>
<!-- Conteúdo SVG original preservado; arquivo completo está disponível no artefato local gerado. -->
<g id="cover-photo" clip-path="url(#clip-foto-aqui)" data-photo-mask="true" data-photo-bounds="0 83 595 423"><g id="foto_aqui_placeholder">
<path d="M221.239 164.677C221.239 172.41 214.987 178.678 207.275 178.678C199.562 178.678 193.31 172.41 193.31 164.677C193.31 156.945 199.562 150.677 207.275 150.677C214.987 150.677 221.239 156.945 221.239 164.677Z" fill="#524848"/>
</g><g id="cover-photo-layer" data-dynamic-photo-layer="true"></g></g>
</g>
</g>
<defs>
<clipPath id="clip-foto-aqui" clipPathUnits="userSpaceOnUse"><path id="photo-mask" d="M595 505.075H456.332L469.858 481.519L551.86 481.662L551.896 481.599L552.21 481.6L595 407.088L551.967 332.452L470.117 332.309L428.852 260.74L343.016 260.59L310.5 317.72C293.563 317.443 273.652 315.879 252 315.214C215.5 315.214 175.126 313.51 137 314.212C71.5 316.326 14.5 320.225 0 332.754L0 83.1885H595V505.075Z" fill="white"/></clipPath>
<clipPath id="clip0_283_67">
<rect width="595" height="842" fill="white"/>
</clipPath>
</defs>
</svg>
